<svg width="129" height="30" viewBox="0 0 129 30" fill="none" xmlns="http://www.w3.org/2000/svg">
<path d="M8.09375 12.0703C7.79688 11.7578 7.55469 11.375 7.36719 10.9219C7.19531 10.4531 7.0625 9.99219 6.96875 9.53906C6.85938 9.02344 6.78125 8.47656 6.73438 7.89844C6.65625 6.77344 6.78125 5.75 7.10938 4.82812C7.4375 3.90625 7.88281 3.11719 8.44531 2.46094C9.00781 1.80469 9.63281 1.29688 10.3203 0.9375C11.0234 0.578125 11.7031 0.398438 12.3594 0.398438C12.6562 0.398438 12.8906 0.46875 13.0625 0.609375C13.25 0.75 13.3906 0.921875 13.4844 1.125C13.5781 1.32812 13.6328 1.53906 13.6484 1.75781C13.6797 1.97656 13.6953 2.15625 13.6953 2.29688C13.6953 2.79688 13.6797 3.28906 13.6484 3.77344C13.6328 4.25781 13.5938 4.77344 13.5312 5.32031C13.4844 5.86719 13.4062 6.45312 13.2969 7.07812C13.1875 7.70312 13.0469 8.39844 12.875 9.16406C12.7812 9.58594 12.6484 10.125 12.4766 10.7812C12.3047 11.4375 12.1016 12.1641 11.8672 12.9609C12.5703 12.9766 13.1328 13.0078 13.5547 13.0547C13.9922 13.0859 14.2734 13.1094 14.3984 13.125C14.5078 13.1406 14.5859 13.1953 14.6328 13.2891C14.6953 13.3828 14.6641 13.5312 14.5391 13.7344C14.4141 13.9219 14.2344 14.0312 14 14.0625C13.7812 14.0938 13.5625 14.1094 13.3438 14.1094C13.2188 14.1094 12.9844 14.1094 12.6406 14.1094C12.3125 14.1094 11.9219 14.125 11.4688 14.1562C11.1406 15.125 10.7656 16.1016 10.3438 17.0859C9.9375 18.0547 9.48438 18.9297 8.98438 19.7109C8.48438 20.5078 7.9375 21.1484 7.34375 21.6328C6.75 22.1328 6.11719 22.3828 5.44531 22.3828C4.47656 22.3828 3.65625 22.1953 2.98438 21.8203C2.32812 21.4609 1.79688 21.0312 1.39062 20.5312C0.96875 20.0469 0.664062 19.5547 0.476562 19.0547C0.289062 18.5703 0.195312 18.1953 0.195312 17.9297C0.195312 17.4609 0.320312 16.9844 0.570312 16.5C0.820312 16.0156 1.21875 15.5625 1.76562 15.1406C2.29688 14.7031 2.99219 14.3203 3.85156 13.9922C4.71094 13.6641 5.74219 13.4141 6.94531 13.2422C7.44531 13.1797 7.92188 13.1328 8.375 13.1016C8.82812 13.0547 9.25781 13.0156 9.66406 12.9844C9.97656 11.8125 10.2891 10.6172 10.6016 9.39844C10.9297 8.17969 11.2109 7.05469 11.4453 6.02344C11.5391 5.60156 11.6328 5.14844 11.7266 4.66406C11.8203 4.16406 11.8906 3.69531 11.9375 3.25781C12 2.82031 12.0312 2.45312 12.0312 2.15625C12.0469 1.85938 12.0156 1.69531 11.9375 1.66406C11.8906 1.64844 11.7734 1.71094 11.5859 1.85156C11.3984 1.97656 11.1797 2.16406 10.9297 2.41406C10.6797 2.66406 10.4297 2.96875 10.1797 3.32812C9.94531 3.67188 9.75 4.04688 9.59375 4.45312C9.3125 5.25 9.09375 6.03125 8.9375 6.79688C8.8125 7.45312 8.73438 8.14844 8.70312 8.88281C8.67188 9.61719 8.78906 10.2812 9.05469 10.875C9.02344 11.0938 8.97656 11.2734 8.91406 11.4141C8.86719 11.4922 8.82812 11.5625 8.79688 11.625C8.75 11.6719 8.69531 11.7266 8.63281 11.7891C8.57031 11.8359 8.49219 11.8906 8.39844 11.9531C8.32031 12 8.21875 12.0391 8.09375 12.0703ZM7.8125 18.6094C7.98438 18.25 8.19531 17.6953 8.44531 16.9453C8.69531 16.1953 8.96094 15.3281 9.24219 14.3438C8.47656 14.4375 7.70312 14.5703 6.92188 14.7422C6.14062 14.8984 5.42969 15.1172 4.78906 15.3984C4.16406 15.6641 3.64844 15.9922 3.24219 16.3828C2.85156 16.7734 2.65625 17.2344 2.65625 17.7656C2.65625 18.3281 2.76562 18.8203 2.98438 19.2422C3.21875 19.6641 3.49219 20.0156 3.80469 20.2969C4.13281 20.5781 4.46094 20.7891 4.78906 20.9297C5.13281 21.0859 5.42188 21.1641 5.65625 21.1641C5.89062 21.1641 6.10938 21.0703 6.3125 20.8828C6.53125 20.7109 6.72656 20.4922 6.89844 20.2266C7.08594 19.9766 7.25 19.7031 7.39062 19.4062C7.54688 19.1094 7.6875 18.8438 7.8125 18.6094ZM21.8516 18.5859C21.4922 18.5859 21.1797 18.5156 20.9141 18.375C20.6641 18.25 20.4609 18.0781 20.3047 17.8594C20.1484 17.6406 20.0469 17.3906 20 17.1094C19.9531 16.8125 19.9688 16.5 20.0469 16.1719C20.0938 15.9531 20.1719 15.6641 20.2812 15.3047C20.3906 14.9297 20.5 14.5312 20.6094 14.1094C20.7344 13.6719 20.8438 13.2422 20.9375 12.8203C21.0469 12.3828 21.1172 11.9922 21.1484 11.6484C21.1797 11.2891 21.1641 11 21.1016 10.7812C21.0391 10.5469 20.9062 10.4297 20.7031 10.4297C20.4531 10.4297 20.1953 10.5156 19.9297 10.6875C19.6641 10.8438 19.3906 11.0625 19.1094 11.3438C18.8438 11.625 18.5703 11.9531 18.2891 12.3281C18.0234 12.6875 17.7578 13.0625 17.4922 13.4531C17.3516 13.9844 17.2344 14.4531 17.1406 14.8594C17.0469 15.25 16.9609 15.6094 16.8828 15.9375C16.8203 16.25 16.7578 16.5312 16.6953 16.7812C16.6328 17.0156 16.5781 17.2422 16.5312 17.4609C16.4844 17.6172 16.3438 17.7734 16.1094 17.9297C15.875 18.0703 15.625 18.1875 15.3594 18.2812C15.0938 18.375 14.8672 18.4219 14.6797 18.4219C14.4766 18.4219 14.3906 18.3516 14.4219 18.2109C14.4375 18.1172 14.4922 17.9062 14.5859 17.5781C14.6641 17.25 14.7656 16.8672 14.8906 16.4297C15 15.9766 15.1172 15.5 15.2422 15C15.3672 14.5 15.4844 14.0234 15.5938 13.5703C15.6719 13.2109 15.7578 12.8125 15.8516 12.375C15.9297 12 16.0234 11.5625 16.1328 11.0625C16.2578 10.5625 16.3984 10.0156 16.5547 9.42188C16.6641 9.32812 16.7734 9.25781 16.8828 9.21094C17.0078 9.14844 17.1328 9.10156 17.2578 9.07031C17.3828 9.02344 17.5156 8.99219 17.6562 8.97656C17.7812 8.97656 17.9062 8.98438 18.0312 9C18.1406 9.01562 18.25 9.04688 18.3594 9.09375C18.4844 9.125 18.5938 9.17969 18.6875 9.25781C18.6406 9.36719 18.5859 9.52344 18.5234 9.72656C18.4609 9.91406 18.3984 10.1172 18.3359 10.3359C18.2734 10.5859 18.1953 10.8438 18.1016 11.1094C18.3047 10.8281 18.5312 10.5469 18.7812 10.2656C19.0469 9.96875 19.3281 9.70312 19.625 9.46875C19.9375 9.23438 20.2656 9.04688 20.6094 8.90625C20.9531 8.75 21.3047 8.67188 21.6641 8.67188C21.9609 8.67188 22.2266 8.75781 22.4609 8.92969C22.6953 9.10156 22.875 9.34375 23 9.65625C23.1406 9.95312 23.2188 10.3125 23.2344 10.7344C23.2656 11.1562 23.2109 11.6172 23.0703 12.1172L22.8125 13.1484C22.7344 13.4766 22.6328 13.8672 22.5078 14.3203C22.3984 14.7578 22.2578 15.2422 22.0859 15.7734C21.9922 16.1172 21.9531 16.4141 21.9688 16.6641C22 16.9141 22.1562 17.0391 22.4375 17.0391C22.7188 17.0391 23.0703 16.8672 23.4922 16.5234C23.9297 16.1797 24.3672 15.7656 24.8047 15.2812C25.2422 14.7969 25.6562 14.3047 26.0469 13.8047C26.4375 13.2891 26.7344 12.875 26.9375 12.5625C27.0781 12.3594 27.2109 12.2266 27.3359 12.1641C27.4609 12.1016 27.5547 12.0938 27.6172 12.1406C27.6953 12.1875 27.7344 12.2969 27.7344 12.4688C27.7344 12.625 27.6719 12.8281 27.5469 13.0781C27.4375 13.2969 27.2656 13.5859 27.0312 13.9453C26.8125 14.3047 26.5469 14.6875 26.2344 15.0938C25.9219 15.5 25.5859 15.9141 25.2266 16.3359C24.8672 16.7422 24.4922 17.1172 24.1016 17.4609C23.7109 17.7891 23.3203 18.0547 22.9297 18.2578C22.5547 18.4766 22.1953 18.5859 21.8516 18.5859ZM29.2812 17.2031C29.375 17.2656 29.4922 17.2969 29.6328 17.2969C29.7891 17.2969 29.9375 17.2656 30.0781 17.2031C30.2344 17.1406 30.375 17.0547 30.5 16.9453C30.6406 16.8359 30.7422 16.6953 30.8047 16.5234C30.8672 16.3516 30.8672 16.1094 30.8047 15.7969C30.7422 15.4688 30.6406 15.125 30.5 14.7656C30.375 14.3906 30.2344 14.0156 30.0781 13.6406C29.9219 13.2656 29.7891 12.9219 29.6797 12.6094C29.5859 12.375 29.5078 12.1562 29.4453 11.9531C29.3828 11.7812 29.3203 11.6172 29.2578 11.4609C29.2109 11.2891 29.1719 11.1719 29.1406 11.1094C29.0625 11.2344 28.9219 11.4375 28.7188 11.7188C28.5312 12 28.3203 12.2969 28.0859 12.6094C27.8672 12.9062 27.6562 13.1875 27.4531 13.4531C27.25 13.7031 27.1094 13.875 27.0312 13.9688C26.9062 14.1094 26.7812 14.1953 26.6562 14.2266C26.5469 14.2422 26.4531 14.2188 26.375 14.1562C26.2969 14.0781 26.25 13.9766 26.2344 13.8516C26.2344 13.7109 26.2969 13.5469 26.4219 13.3594C26.5156 13.2344 26.6562 13.0391 26.8438 12.7734C27.0312 12.4922 27.2188 12.2109 27.4062 11.9297C27.5938 11.6328 27.7656 11.375 27.9219 11.1562C28.0781 10.9219 28.1641 10.7812 28.1797 10.7344C28.2109 10.6094 28.1641 10.4453 28.0391 10.2422C27.9297 10.0391 27.9141 9.80469 27.9922 9.53906C28.0547 9.32031 28.1953 9.07031 28.4141 8.78906C28.6328 8.49219 28.8906 8.22656 29.1875 7.99219C29.4844 7.75781 29.7891 7.58594 30.1016 7.47656C30.4141 7.35156 30.6953 7.35156 30.9453 7.47656C31.1484 7.60156 31.3125 7.74219 31.4375 7.89844C31.5625 8.03906 31.6094 8.1875 31.5781 8.34375C31.5469 8.42188 31.5 8.52344 31.4375 8.64844C31.375 8.77344 31.2812 8.92969 31.1562 9.11719C31.0312 9.28906 30.8516 9.51562 30.6172 9.79688C30.6641 10.1562 30.7266 10.4844 30.8047 10.7812C30.8984 11.0781 30.9844 11.3359 31.0625 11.5547C31.1562 11.8203 31.2578 12.0625 31.3672 12.2812C31.5078 12.5625 31.6562 12.8516 31.8125 13.1484C31.9688 13.4453 32.1094 13.7422 32.2344 14.0391C32.3594 14.3203 32.4609 14.5859 32.5391 14.8359C32.6172 15.0859 32.6406 15.2969 32.6094 15.4688C32.5625 15.7344 32.4219 16.0547 32.1875 16.4297C31.9688 16.8047 31.6875 17.1719 31.3438 17.5312C31.0156 17.875 30.6328 18.1719 30.1953 18.4219C29.7734 18.6719 29.3281 18.7969 28.8594 18.7969C28.5312 18.7969 28.2109 18.6953 27.8984 18.4922C27.6016 18.2891 27.3438 18.0547 27.125 17.7891C26.9219 17.5078 26.7656 17.2344 26.6562 16.9688C26.5625 16.7031 26.5547 16.5 26.6328 16.3594C26.7266 16.1719 26.8125 16.0234 26.8906 15.9141C26.9688 15.8047 27.0859 15.6797 27.2422 15.5391C27.3047 15.4922 27.3828 15.4375 27.4766 15.375C27.5547 15.3281 27.6641 15.2812 27.8047 15.2344C27.9453 15.1875 28.1094 15.1328 28.2969 15.0703C28.4531 15.5547 28.5938 15.9375 28.7188 16.2188C28.8438 16.4844 28.9453 16.6953 29.0234 16.8516C29.1172 17.0234 29.2031 17.1406 29.2812 17.2031ZM43.0625 12.0703C43.125 11.9766 43.2031 11.9219 43.2969 11.9062C43.4062 11.875 43.4922 11.8828 43.5547 11.9297C43.6172 11.9766 43.6484 12.0547 43.6484 12.1641C43.6641 12.2734 43.625 12.4219 43.5312 12.6094C43.2188 13.2031 42.8047 13.8438 42.2891 14.5312C41.7891 15.2188 41.2578 15.8672 40.6953 16.4766C40.1328 17.0703 39.5859 17.5625 39.0547 17.9531C38.5234 18.3438 38.0781 18.5391 37.7188 18.5391C37.2031 18.5391 36.7734 18.4375 36.4297 18.2344C36.0859 18.0312 35.8125 17.7812 35.6094 17.4844C35.4219 17.1875 35.2891 16.8672 35.2109 16.5234C35.1328 16.1641 35.1094 15.8359 35.1406 15.5391C35.1562 15.2891 35.2109 14.8438 35.3047 14.2031C35.3984 13.5469 35.5234 12.7969 35.6797 11.9531C35.8359 11.0938 36.0078 10.1797 36.1953 9.21094C36.3984 8.22656 36.6094 7.28125 36.8281 6.375C36.5625 6.40625 36.2969 6.4375 36.0312 6.46875C35.7656 6.5 35.5234 6.51562 35.3047 6.51562C34.8047 6.51562 34.3359 6.46094 33.8984 6.35156C33.4453 6.22656 33.1094 6.10938 32.8906 6C32.7656 5.9375 32.7109 5.85156 32.7266 5.74219C32.7422 5.61719 32.7891 5.5 32.8672 5.39062C32.9453 5.26562 33.0469 5.16406 33.1719 5.08594C33.2812 4.99219 33.3828 4.94531 33.4766 4.94531C33.7734 4.97656 34.0938 5.00781 34.4375 5.03906C34.7812 5.05469 35.1562 5.05469 35.5625 5.03906C35.8594 5.02344 36.1406 5 36.4062 4.96875C36.6875 4.9375 36.9609 4.89844 37.2266 4.85156C37.4297 4.10156 37.625 3.45312 37.8125 2.90625C38.0156 2.34375 38.1953 1.95313 38.3516 1.73438C38.3984 1.65625 38.5 1.59375 38.6562 1.54688C38.8281 1.48438 39.0078 1.44531 39.1953 1.42969C39.3828 1.39844 39.5625 1.39844 39.7344 1.42969C39.9062 1.44531 40.0312 1.5 40.1094 1.59375C40.1875 1.71875 40.2188 2.03906 40.2031 2.55469C40.1875 3.07031 40.1016 3.72656 39.9453 4.52344C40.6016 4.52344 41.1797 4.5625 41.6797 4.64062C42.1953 4.70312 42.6328 4.78125 42.9922 4.875C43.3516 4.95312 43.6406 5.03906 43.8594 5.13281C44.0781 5.21094 44.2422 5.26562 44.3516 5.29688C44.4609 5.32812 44.5156 5.40625 44.5156 5.53125C44.5312 5.65625 44.5078 5.78906 44.4453 5.92969C44.3984 6.05469 44.3125 6.16406 44.1875 6.25781C44.0625 6.35156 43.9219 6.38281 43.7656 6.35156C43.6094 6.33594 43.4297 6.30469 43.2266 6.25781C43.0391 6.21094 42.8047 6.17188 42.5234 6.14062C42.2578 6.10938 41.9375 6.07812 41.5625 6.04688C41.1875 6.01562 40.75 6 40.25 6C40.1562 6 40.0469 6.00781 39.9219 6.02344C39.8125 6.02344 39.6953 6.02344 39.5703 6.02344C39.5078 6.27344 39.4453 6.52344 39.3828 6.77344C39.3359 7.00781 39.2656 7.25781 39.1719 7.52344C38.9688 8.14844 38.7344 8.82812 38.4688 9.5625C38.2344 10.2031 37.9531 10.9375 37.625 11.7656C37.2969 12.5938 36.9297 13.4766 36.5234 14.4141C36.4297 15.0859 36.4375 15.6016 36.5469 15.9609C36.6719 16.3047 36.8203 16.5547 36.9922 16.7109C37.1953 16.8828 37.4453 16.9766 37.7422 16.9922C37.9766 17.0234 38.2578 16.9453 38.5859 16.7578C38.9297 16.5547 39.2812 16.2891 39.6406 15.9609C40 15.6328 40.3594 15.2734 40.7188 14.8828C41.0938 14.4922 41.4375 14.1094 41.75 13.7344C42.0625 13.3594 42.3359 13.0234 42.5703 12.7266C42.8047 12.4141 42.9688 12.1953 43.0625 12.0703ZM53.6797 13.3359C53.4609 13.6484 53.1797 14.0391 52.8359 14.5078C52.4922 14.9609 52.1328 15.4219 51.7578 15.8906C51.3984 16.3438 51.0391 16.7656 50.6797 17.1562C50.3359 17.5312 50.0469 17.7969 49.8125 17.9531C49.6562 18.0469 49.4766 18.125 49.2734 18.1875C49.0703 18.25 48.8594 18.2891 48.6406 18.3047C48.4375 18.3203 48.2422 18.3047 48.0547 18.2578C47.8672 18.2266 47.7031 18.1641 47.5625 18.0703C47.4219 17.9609 47.3047 17.8047 47.2109 17.6016C47.1328 17.4297 47.0547 17.2031 46.9766 16.9219C46.9141 16.6406 46.8906 16.2891 46.9062 15.8672C46.5312 16.4922 46.1172 16.9766 45.6641 17.3203C45.2109 17.6484 44.7812 17.8906 44.375 18.0469C43.9062 18.2188 43.4375 18.3203 42.9688 18.3516C42.75 18.3516 42.5156 18.2734 42.2656 18.1172C42.0156 17.9766 41.8047 17.75 41.6328 17.4375C41.4609 17.1094 41.3516 16.6953 41.3047 16.1953C41.2578 15.6797 41.3203 15.0703 41.4922 14.3672C41.7109 13.4141 42.0547 12.5469 42.5234 11.7656C43.0078 10.9844 43.5312 10.3203 44.0938 9.77344C44.6562 9.21094 45.2109 8.78906 45.7578 8.50781C46.3047 8.22656 46.7578 8.10156 47.1172 8.13281C47.5391 8.21094 47.8828 8.33594 48.1484 8.50781C48.3672 8.66406 48.5078 8.89844 48.5703 9.21094C48.6484 9.50781 48.5234 9.90625 48.1953 10.4062C48.4141 10.3594 48.5938 10.3281 48.7344 10.3125C48.8906 10.2969 49.0078 10.2891 49.0859 10.2891C49.1797 10.2891 49.2422 10.2969 49.2734 10.3125C49.2891 10.3438 49.2969 10.4141 49.2969 10.5234C49.2969 10.6172 49.2734 10.7969 49.2266 11.0625C49.1797 11.3281 49.1094 11.6875 49.0156 12.1406C48.9219 12.5938 48.7969 13.1797 48.6406 13.8984C48.6094 14.0391 48.5781 14.1719 48.5469 14.2969C48.5312 14.4062 48.5078 14.5234 48.4766 14.6484C48.4609 14.7578 48.4375 14.8906 48.4062 15.0469C48.375 15.2031 48.3359 15.3984 48.2891 15.6328C48.2734 15.7734 48.2656 15.9297 48.2656 16.1016C48.2812 16.2578 48.3125 16.4062 48.3594 16.5469C48.4062 16.6875 48.4766 16.8047 48.5703 16.8984C48.6797 16.9766 48.8281 17.0156 49.0156 17.0156C49.1719 17.0156 49.375 16.9219 49.625 16.7344C49.875 16.5312 50.1406 16.2812 50.4219 15.9844C50.7031 15.6719 50.9922 15.3359 51.2891 14.9766C51.6016 14.6016 51.8906 14.2422 52.1562 13.8984C52.4219 13.5547 52.6562 13.25 52.8594 12.9844C53.0781 12.7188 53.2344 12.5234 53.3281 12.3984C53.4531 12.2578 53.5781 12.1797 53.7031 12.1641C53.8281 12.1328 53.9219 12.1641 53.9844 12.2578C54.0469 12.3516 54.0547 12.4922 54.0078 12.6797C53.9766 12.8672 53.8672 13.0859 53.6797 13.3359ZM46.8125 14.3672C46.8906 14.0547 46.9844 13.6875 47.0938 13.2656C47.2031 12.8438 47.2969 12.4375 47.375 12.0469C47.4531 11.6562 47.5078 11.3359 47.5391 11.0859C47.5859 10.8203 47.5781 10.6953 47.5156 10.7109C47.4375 10.7266 47.3516 10.75 47.2578 10.7812C47.1797 10.8125 47.0781 10.8359 46.9531 10.8516C46.8281 10.8672 46.7031 10.8906 46.5781 10.9219C46.7031 10.6719 46.7734 10.4688 46.7891 10.3125C46.8203 10.1406 46.8281 10.0078 46.8125 9.91406C46.7969 9.80469 46.7656 9.71875 46.7188 9.65625C46.5469 9.51562 46.2422 9.63281 45.8047 10.0078C45.3828 10.3672 44.8906 11.0391 44.3281 12.0234C44.0938 12.4297 43.9062 12.8672 43.7656 13.3359C43.625 13.7891 43.5234 14.2188 43.4609 14.625C43.4141 15.0312 43.4062 15.3906 43.4375 15.7031C43.4688 16 43.5312 16.1953 43.625 16.2891C43.7969 16.4609 43.9922 16.5469 44.2109 16.5469C44.4297 16.5312 44.6484 16.4688 44.8672 16.3594C45.1016 16.2344 45.3281 16.0781 45.5469 15.8906C45.7812 15.7031 45.9844 15.5078 46.1562 15.3047C46.3438 15.1016 46.4922 14.9141 46.6016 14.7422C46.7266 14.5703 46.7969 14.4453 46.8125 14.3672ZM58.2969 21.3516C58.2188 21.7266 58.1172 22.1953 57.9922 22.7578C57.8828 23.3203 57.75 23.9141 57.5938 24.5391C57.4531 25.1641 57.2812 25.7812 57.0781 26.3906C56.8906 27.0156 56.6797 27.5703 56.4453 28.0547C56.2109 28.5547 55.9531 28.9609 55.6719 29.2734C55.3906 29.5859 55.0781 29.7422 54.7344 29.7422C54.2188 29.7422 53.7734 29.5859 53.3984 29.2734C53.0391 28.9766 52.7344 28.5938 52.4844 28.125C52.2344 27.6719 52.0547 27.1797 51.9453 26.6484C51.8203 26.1172 51.7578 25.625 51.7578 25.1719C51.7578 24.5469 51.8125 24.0234 51.9219 23.6016C52.0312 23.1953 52.2188 22.8047 52.4844 22.4297C52.7656 22.0547 53.1406 21.6562 53.6094 21.2344C54.0781 20.8125 54.6797 20.2891 55.4141 19.6641C55.7734 19.3516 56.1172 19.0547 56.4453 18.7734C56.7734 18.4922 57.0859 18.2344 57.3828 18C57.4609 17.6875 57.5312 17.3984 57.5938 17.1328C57.6719 16.8516 57.7344 16.6016 57.7812 16.3828C57.375 16.9297 56.8828 17.3906 56.3047 17.7656C55.7422 18.1406 55.0938 18.3281 54.3594 18.3281C53.6875 18.3281 53.1406 18.0312 52.7188 17.4375C52.3125 16.8281 52.1094 15.9375 52.1094 14.7656C52.1094 14.1875 52.2188 13.5234 52.4375 12.7734C52.6562 12.0234 52.9688 11.3203 53.375 10.6641C53.7812 10.0078 54.2812 9.45312 54.875 9C55.4688 8.54688 56.1328 8.32031 56.8672 8.32031C57.2109 8.32031 57.5078 8.40625 57.7578 8.57812C58.0078 8.75 58.2188 8.96875 58.3906 9.23438C58.5625 9.48438 58.6953 9.75781 58.7891 10.0547C58.8828 10.3359 58.9531 10.6016 59 10.8516C59.0312 10.7578 59.0547 10.6641 59.0703 10.5703C59.0859 10.4609 59.1094 10.3672 59.1406 10.2891C59.2969 9.75781 59.4688 9.39844 59.6562 9.21094C59.8594 9.00781 60.1562 8.90625 60.5469 8.90625C60.7656 8.90625 60.9453 8.94531 61.0859 9.02344C61.2422 9.10156 61.3203 9.17188 61.3203 9.23438C61.2422 9.40625 61.1797 9.53906 61.1328 9.63281C61.0859 9.72656 61.0391 9.82812 60.9922 9.9375C60.9453 10.0312 60.8984 10.1562 60.8516 10.3125C60.8047 10.4688 60.7422 10.6953 60.6641 10.9922C60.6328 11.1016 60.5703 11.3594 60.4766 11.7656C60.3984 12.1562 60.2891 12.625 60.1484 13.1719C60.0234 13.7188 59.8828 14.3203 59.7266 14.9766C59.5859 15.6328 59.4453 16.2734 59.3047 16.8984C59.7422 16.6484 60.1953 16.3438 60.6641 15.9844C61.1328 15.625 61.5781 15.2578 62 14.8828C62.4219 14.5078 62.7969 14.1562 63.125 13.8281C63.4531 13.4844 63.6953 13.2031 63.8516 12.9844C63.9766 12.7969 64.1172 12.6641 64.2734 12.5859C64.4297 12.5078 64.5625 12.4844 64.6719 12.5156C64.7969 12.5312 64.8672 12.6016 64.8828 12.7266C64.9141 12.8359 64.8672 12.9922 64.7422 13.1953C64.3828 13.7734 63.9453 14.3359 63.4297 14.8828C62.9141 15.4141 62.3828 15.9141 61.8359 16.3828C61.3047 16.8359 60.7812 17.2422 60.2656 17.6016C59.7656 17.9453 59.3359 18.2266 58.9766 18.4453C58.8203 19.1484 58.6875 19.7188 58.5781 20.1562C58.4688 20.5938 58.375 20.9922 58.2969 21.3516ZM55.3438 16.7344C55.6719 16.7344 55.9766 16.6484 56.2578 16.4766C56.5547 16.3047 56.8203 16.1094 57.0547 15.8906C57.2891 15.6562 57.4844 15.4219 57.6406 15.1875C57.7969 14.9531 57.9141 14.7656 57.9922 14.625C58.0547 14.4844 58.125 14.2969 58.2031 14.0625C58.2969 13.8281 58.3672 13.6016 58.4141 13.3828C58.4609 13.1641 58.4766 12.9688 58.4609 12.7969C58.4609 12.625 58.4062 12.5312 58.2969 12.5156C58.2031 12.5 58.125 12.4375 58.0625 12.3281C58.0156 12.2188 57.9766 12.0938 57.9453 11.9531C57.9141 11.8125 57.8906 11.6719 57.875 11.5312C57.875 11.3906 57.8672 11.2656 57.8516 11.1562C57.7734 10.6094 57.6406 10.2109 57.4531 9.96094C57.2656 9.71094 57.0547 9.58594 56.8203 9.58594C56.4297 9.58594 56.0547 9.74219 55.6953 10.0547C55.3516 10.3672 55.0391 10.7734 54.7578 11.2734C54.4922 11.7578 54.2812 12.2969 54.125 12.8906C53.9688 13.4688 53.8906 14.0234 53.8906 14.5547C53.8906 15.2109 53.9844 15.7422 54.1719 16.1484C54.3594 16.5391 54.75 16.7344 55.3438 16.7344ZM54.2656 27.6094C54.5781 27.6094 54.8281 27.375 55.0156 26.9062C55.2188 26.4531 55.4297 25.8281 55.6484 25.0312C55.6953 24.8438 55.7578 24.5703 55.8359 24.2109C55.9297 23.8672 56.0312 23.4688 56.1406 23.0156C56.2656 22.5625 56.3906 22.0703 56.5156 21.5391C56.6406 21.0234 56.7734 20.5 56.9141 19.9688C56.7891 20.0781 56.6562 20.1875 56.5156 20.2969C56.3906 20.4219 56.2578 20.5625 56.1172 20.7188C55.7734 21.0469 55.4375 21.3594 55.1094 21.6562C54.7969 21.9688 54.5156 22.2891 54.2656 22.6172C54.0156 22.9609 53.8125 23.3281 53.6562 23.7188C53.5156 24.1094 53.4453 24.5625 53.4453 25.0781C53.4453 25.5938 53.4609 26.0156 53.4922 26.3438C53.5391 26.6719 53.5938 26.9297 53.6562 27.1172C53.7344 27.3047 53.8203 27.4297 53.9141 27.4922C54.0234 27.5703 54.1406 27.6094 54.2656 27.6094ZM62.2578 17.8828C62.1484 18.0547 62.0312 18.1641 61.9062 18.2109C61.7656 18.2734 61.6484 18.2812 61.5547 18.2344C61.4453 18.2031 61.375 18.125 61.3438 18C61.3125 17.875 61.3438 17.7188 61.4375 17.5312C61.4844 17.4375 61.5938 17.2266 61.7656 16.8984C61.9219 16.5703 62.1172 16.1797 62.3516 15.7266C62.5703 15.2578 62.8125 14.7578 63.0781 14.2266C63.3438 13.6797 63.5938 13.1641 63.8281 12.6797C64.0781 12.1953 64.3047 11.7656 64.5078 11.3906C64.7109 11 64.8594 10.7188 64.9531 10.5469C64.7812 10.3906 64.6641 10.2812 64.6016 10.2188C64.5391 10.1406 64.4922 9.98438 64.4609 9.75C64.4297 9.54688 64.4766 9.28125 64.6016 8.95312C64.7266 8.625 64.8906 8.3125 65.0938 8.01562C65.2969 7.70312 65.5234 7.4375 65.7734 7.21875C66.0234 7 66.2656 6.89062 66.5 6.89062C66.9375 6.89062 67.2422 7.03125 67.4141 7.3125C67.6016 7.59375 67.7109 7.88281 67.7422 8.17969C67.7734 8.38281 67.7578 8.64062 67.6953 8.95312C67.6328 9.26562 67.5156 9.54688 67.3438 9.79688C67.3906 9.82812 67.4531 9.86719 67.5312 9.91406C67.6094 9.94531 67.7344 9.96094 67.9062 9.96094C68.1562 9.96094 68.3281 9.94531 68.4219 9.91406C68.5312 9.88281 68.6953 9.86719 68.9141 9.86719C69.1797 9.86719 69.3984 9.9375 69.5703 10.0781C69.7422 10.2031 69.8828 10.3672 69.9922 10.5703C70.1016 10.7578 70.1797 10.9688 70.2266 11.2031C70.2891 11.4219 70.3281 11.625 70.3438 11.8125C70.3906 12.2031 70.2891 12.6094 70.0391 13.0312C69.7891 13.4531 69.4844 13.9141 69.125 14.4141C68.9062 14.7266 68.6875 15.0781 68.4688 15.4688C68.25 15.8594 68.1562 16.2109 68.1875 16.5234C68.2188 16.7266 68.2734 16.8906 68.3516 17.0156C68.4297 17.1406 68.6484 17.2031 69.0078 17.2031C69.2734 17.2031 69.5625 17.1094 69.875 16.9219C70.2031 16.7188 70.5312 16.4688 70.8594 16.1719C71.2031 15.8594 71.5391 15.5234 71.8672 15.1641C72.1953 14.7891 72.5 14.4297 72.7812 14.0859C73.0625 13.7266 73.2969 13.4062 73.4844 13.125C73.6875 12.8438 73.8359 12.6406 73.9297 12.5156C74.0078 12.3906 74.1094 12.3047 74.2344 12.2578C74.3594 12.2109 74.4688 12.2109 74.5625 12.2578C74.6562 12.3047 74.7109 12.3984 74.7266 12.5391C74.7578 12.6797 74.7031 12.8672 74.5625 13.1016C74.4688 13.2578 74.3047 13.5078 74.0703 13.8516C73.8516 14.1953 73.5781 14.5781 73.25 15C72.9375 15.4219 72.5859 15.8594 72.1953 16.3125C71.8047 16.75 71.3906 17.1562 70.9531 17.5312C70.5312 17.8906 70.1016 18.1875 69.6641 18.4219C69.2422 18.6562 68.8359 18.7734 68.4453 18.7734C68.0391 18.7734 67.7031 18.6953 67.4375 18.5391C67.1719 18.3828 66.9531 18.1953 66.7812 17.9766C66.625 17.7422 66.5078 17.4922 66.4297 17.2266C66.3672 16.9453 66.3438 16.6875 66.3594 16.4531C66.375 16.2656 66.4219 16.0703 66.5 15.8672C66.5938 15.6484 66.6953 15.4297 66.8047 15.2109C66.9297 14.9766 67.0547 14.75 67.1797 14.5312C67.3203 14.2969 67.4453 14.0703 67.5547 13.8516C67.8203 13.3984 68.0312 13.0156 68.1875 12.7031C68.3594 12.375 68.4453 12.1016 68.4453 11.8828C68.4453 11.7422 68.4141 11.6172 68.3516 11.5078C68.2891 11.3984 68.1875 11.3438 68.0469 11.3438C67.9531 11.3438 67.8828 11.3516 67.8359 11.3672C67.8047 11.3672 67.7656 11.3672 67.7188 11.3672C67.6875 11.3672 67.6328 11.375 67.5547 11.3906C67.4922 11.3906 67.3906 11.3906 67.25 11.3906C67.0469 11.3906 66.875 11.3594 66.7344 11.2969C66.5938 11.2344 66.4609 11.1875 66.3359 11.1562C66.2734 11.2656 66.1328 11.5 65.9141 11.8594C65.6953 12.2188 65.4375 12.6406 65.1406 13.125C64.8594 13.6094 64.5547 14.1172 64.2266 14.6484C63.9141 15.1797 63.6172 15.6797 63.3359 16.1484C63.0547 16.6016 62.8203 16.9922 62.6328 17.3203C62.4297 17.6328 62.3047 17.8203 62.2578 17.8828ZM84.9219 13.3359C84.7031 13.6484 84.4219 14.0391 84.0781 14.5078C83.7344 14.9609 83.375 15.4219 83 15.8906C82.6406 16.3438 82.2812 16.7656 81.9219 17.1562C81.5781 17.5312 81.2891 17.7969 81.0547 17.9531C80.8984 18.0469 80.7188 18.125 80.5156 18.1875C80.3125 18.25 80.1016 18.2891 79.8828 18.3047C79.6797 18.3203 79.4844 18.3047 79.2969 18.2578C79.1094 18.2266 78.9453 18.1641 78.8047 18.0703C78.6641 17.9609 78.5469 17.8047 78.4531 17.6016C78.375 17.4297 78.2969 17.2031 78.2188 16.9219C78.1562 16.6406 78.1328 16.2891 78.1484 15.8672C77.7734 16.4922 77.3594 16.9766 76.9062 17.3203C76.4531 17.6484 76.0234 17.8906 75.6172 18.0469C75.1484 18.2188 74.6797 18.3203 74.2109 18.3516C73.9922 18.3516 73.7578 18.2734 73.5078 18.1172C73.2578 17.9766 73.0469 17.75 72.875 17.4375C72.7031 17.1094 72.5938 16.6953 72.5469 16.1953C72.5 15.6797 72.5625 15.0703 72.7344 14.3672C72.9531 13.4141 73.2969 12.5469 73.7656 11.7656C74.25 10.9844 74.7734 10.3203 75.3359 9.77344C75.8984 9.21094 76.4531 8.78906 77 8.50781C77.5469 8.22656 78 8.10156 78.3594 8.13281C78.7812 8.21094 79.125 8.33594 79.3906 8.50781C79.6094 8.66406 79.75 8.89844 79.8125 9.21094C79.8906 9.50781 79.7656 9.90625 79.4375 10.4062C79.6562 10.3594 79.8359 10.3281 79.9766 10.3125C80.1328 10.2969 80.25 10.2891 80.3281 10.2891C80.4219 10.2891 80.4844 10.2969 80.5156 10.3125C80.5312 10.3438 80.5391 10.4141 80.5391 10.5234C80.5391 10.6172 80.5156 10.7969 80.4688 11.0625C80.4219 11.3281 80.3516 11.6875 80.2578 12.1406C80.1641 12.5938 80.0391 13.1797 79.8828 13.8984C79.8516 14.0391 79.8203 14.1719 79.7891 14.2969C79.7734 14.4062 79.75 14.5234 79.7188 14.6484C79.7031 14.7578 79.6797 14.8906 79.6484 15.0469C79.6172 15.2031 79.5781 15.3984 79.5312 15.6328C79.5156 15.7734 79.5078 15.9297 79.5078 16.1016C79.5234 16.2578 79.5547 16.4062 79.6016 16.5469C79.6484 16.6875 79.7188 16.8047 79.8125 16.8984C79.9219 16.9766 80.0703 17.0156 80.2578 17.0156C80.4141 17.0156 80.6172 16.9219 80.8672 16.7344C81.1172 16.5312 81.3828 16.2812 81.6641 15.9844C81.9453 15.6719 82.2344 15.3359 82.5312 14.9766C82.8438 14.6016 83.1328 14.2422 83.3984 13.8984C83.6641 13.5547 83.8984 13.25 84.1016 12.9844C84.3203 12.7188 84.4766 12.5234 84.5703 12.3984C84.6953 12.2578 84.8203 12.1797 84.9453 12.1641C85.0703 12.1328 85.1641 12.1641 85.2266 12.2578C85.2891 12.3516 85.2969 12.4922 85.25 12.6797C85.2188 12.8672 85.1094 13.0859 84.9219 13.3359ZM78.0547 14.3672C78.1328 14.0547 78.2266 13.6875 78.3359 13.2656C78.4453 12.8438 78.5391 12.4375 78.6172 12.0469C78.6953 11.6562 78.75 11.3359 78.7812 11.0859C78.8281 10.8203 78.8203 10.6953 78.7578 10.7109C78.6797 10.7266 78.5938 10.75 78.5 10.7812C78.4219 10.8125 78.3203 10.8359 78.1953 10.8516C78.0703 10.8672 77.9453 10.8906 77.8203 10.9219C77.9453 10.6719 78.0156 10.4688 78.0312 10.3125C78.0625 10.1406 78.0703 10.0078 78.0547 9.91406C78.0391 9.80469 78.0078 9.71875 77.9609 9.65625C77.7891 9.51562 77.4844 9.63281 77.0469 10.0078C76.625 10.3672 76.1328 11.0391 75.5703 12.0234C75.3359 12.4297 75.1484 12.8672 75.0078 13.3359C74.8672 13.7891 74.7656 14.2188 74.7031 14.625C74.6562 15.0312 74.6484 15.3906 74.6797 15.7031C74.7109 16 74.7734 16.1953 74.8672 16.2891C75.0391 16.4609 75.2344 16.5469 75.4531 16.5469C75.6719 16.5312 75.8906 16.4688 76.1094 16.3594C76.3438 16.2344 76.5703 16.0781 76.7891 15.8906C77.0234 15.7031 77.2266 15.5078 77.3984 15.3047C77.5859 15.1016 77.7344 14.9141 77.8438 14.7422C77.9688 14.5703 78.0391 14.4453 78.0547 14.3672ZM94.2734 16.9219C94.2734 16.5938 94.3047 16.2188 94.3672 15.7969C94.4453 15.375 94.5391 14.9453 94.6484 14.5078C94.7578 14.0547 94.8672 13.6172 94.9766 13.1953C95.0859 12.7734 95.1797 12.3984 95.2578 12.0703C95.3516 11.6641 95.3438 11.3516 95.2344 11.1328C95.125 10.9141 94.9375 10.8047 94.6719 10.8047C94.5469 10.8047 94.2969 10.9141 93.9219 11.1328C93.5625 11.3516 93.1641 11.7344 92.7266 12.2812C92.3047 12.8125 91.8828 13.5391 91.4609 14.4609C91.0547 15.3672 90.7344 16.5234 90.5 17.9297C90.2031 18.0859 89.9219 18.1875 89.6562 18.2344C89.5156 18.2656 89.3906 18.2891 89.2812 18.3047C88.9688 18.3203 88.7656 18.2656 88.6719 18.1406C88.5781 18.0312 88.5938 17.75 88.7188 17.2969C88.7812 17.0781 88.8906 16.7266 89.0469 16.2422C89.2188 15.7578 89.3828 15.2344 89.5391 14.6719C89.6953 14.0938 89.8281 13.5234 89.9375 12.9609C90.0625 12.3828 90.125 11.8828 90.125 11.4609C90.125 11.1641 90.0703 10.9609 89.9609 10.8516C89.8672 10.7422 89.7266 10.6875 89.5391 10.6875C89.3984 10.6875 89.1641 10.7656 88.8359 10.9219C88.5078 11.0781 88.1406 11.3828 87.7344 11.8359C87.3281 12.2891 86.9219 12.9219 86.5156 13.7344C86.125 14.5312 85.7891 15.5703 85.5078 16.8516V16.8047C85.4766 16.9297 85.4453 17.0547 85.4141 17.1797C85.3828 17.2891 85.3594 17.4062 85.3438 17.5312C85.3281 17.6562 85.3047 17.7734 85.2734 17.8828L84.1016 18.3984C84.0234 18.4297 83.9219 18.4531 83.7969 18.4688C83.6875 18.4844 83.5781 18.4609 83.4688 18.3984C83.375 18.3516 83.3047 18.2422 83.2578 18.0703C83.2109 17.8984 83.2266 17.6406 83.3047 17.2969L84.7812 11.1797C84.8281 10.9766 84.8672 10.7812 84.8984 10.5938C84.9297 10.4219 84.9453 10.2578 84.9453 10.1016C84.9609 9.92969 84.9531 9.78906 84.9219 9.67969C85.1875 9.55469 85.4219 9.46094 85.625 9.39844C85.8281 9.33594 85.9922 9.28906 86.1172 9.25781C86.2734 9.21094 86.4062 9.1875 86.5156 9.1875C87.0156 9.1875 87.1797 9.61719 87.0078 10.4766C86.9453 10.7266 86.8516 11.0938 86.7266 11.5781C87.0234 11.2031 87.3359 10.8516 87.6641 10.5234C88.0078 10.1797 88.3516 9.875 88.6953 9.60938C89.0391 9.34375 89.3828 9.13281 89.7266 8.97656C90.0859 8.82031 90.4375 8.74219 90.7812 8.74219C91.0469 8.74219 91.2656 8.82031 91.4375 8.97656C91.625 9.13281 91.7656 9.34375 91.8594 9.60938C91.9688 9.85938 92.0312 10.1641 92.0469 10.5234C92.0625 10.8672 92.0469 11.2266 92 11.6016C92.25 11.2734 92.5234 10.9453 92.8203 10.6172C93.1328 10.2734 93.4531 9.96875 93.7812 9.70312C94.125 9.4375 94.4766 9.21875 94.8359 9.04688C95.1953 8.875 95.5547 8.78906 95.9141 8.78906C96.3359 8.78906 96.6562 8.91406 96.875 9.16406C97.1094 9.41406 97.2656 9.73438 97.3438 10.125C97.4375 10.5156 97.4609 10.9375 97.4141 11.3906C97.3828 11.8438 97.3203 12.2812 97.2266 12.7031L96.4297 15.8672C96.2578 16.6484 96.4219 17.0391 96.9219 17.0391C97.3125 17.0391 97.7422 16.8516 98.2109 16.4766C98.6797 16.1016 99.1328 15.6562 99.5703 15.1406C100.023 14.625 100.445 14.0938 100.836 13.5469C101.227 13 101.555 12.5625 101.82 12.2344C101.914 12.125 102.008 12.0625 102.102 12.0469C102.211 12.0312 102.297 12.0547 102.359 12.1172C102.438 12.1641 102.477 12.25 102.477 12.375C102.492 12.5 102.453 12.6562 102.359 12.8438C102.047 13.3906 101.664 14 101.211 14.6719C100.758 15.3281 100.258 15.9453 99.7109 16.5234C99.1797 17.1016 98.6094 17.5859 98 17.9766C97.3906 18.3672 96.7578 18.5625 96.1016 18.5625C95.8828 18.5625 95.6641 18.5391 95.4453 18.4922C95.2422 18.4453 95.0469 18.3594 94.8594 18.2344C94.6875 18.1094 94.5469 17.9453 94.4375 17.7422C94.3281 17.5234 94.2734 17.25 94.2734 16.9219ZM111.5 16.9219C111.5 16.5938 111.531 16.2188 111.594 15.7969C111.672 15.375 111.766 14.9453 111.875 14.5078C111.984 14.0547 112.094 13.6172 112.203 13.1953C112.312 12.7734 112.406 12.3984 112.484 12.0703C112.578 11.6641 112.57 11.3516 112.461 11.1328C112.352 10.9141 112.164 10.8047 111.898 10.8047C111.773 10.8047 111.523 10.9141 111.148 11.1328C110.789 11.3516 110.391 11.7344 109.953 12.2812C109.531 12.8125 109.109 13.5391 108.688 14.4609C108.281 15.3672 107.961 16.5234 107.727 17.9297C107.43 18.0859 107.148 18.1875 106.883 18.2344C106.742 18.2656 106.617 18.2891 106.508 18.3047C106.195 18.3203 105.992 18.2656 105.898 18.1406C105.805 18.0312 105.82 17.75 105.945 17.2969C106.008 17.0781 106.117 16.7266 106.273 16.2422C106.445 15.7578 106.609 15.2344 106.766 14.6719C106.922 14.0938 107.055 13.5234 107.164 12.9609C107.289 12.3828 107.352 11.8828 107.352 11.4609C107.352 11.1641 107.297 10.9609 107.188 10.8516C107.094 10.7422 106.953 10.6875 106.766 10.6875C106.625 10.6875 106.391 10.7656 106.062 10.9219C105.734 11.0781 105.367 11.3828 104.961 11.8359C104.555 12.2891 104.148 12.9219 103.742 13.7344C103.352 14.5312 103.016 15.5703 102.734 16.8516V16.8047C102.703 16.9297 102.672 17.0547 102.641 17.1797C102.609 17.2891 102.586 17.4062 102.57 17.5312C102.555 17.6562 102.531 17.7734 102.5 17.8828L101.328 18.3984C101.25 18.4297 101.148 18.4531 101.023 18.4688C100.914 18.4844 100.805 18.4609 100.695 18.3984C100.602 18.3516 100.531 18.2422 100.484 18.0703C100.438 17.8984 100.453 17.6406 100.531 17.2969L102.008 11.1797C102.055 10.9766 102.094 10.7812 102.125 10.5938C102.156 10.4219 102.172 10.2578 102.172 10.1016C102.188 9.92969 102.18 9.78906 102.148 9.67969C102.414 9.55469 102.648 9.46094 102.852 9.39844C103.055 9.33594 103.219 9.28906 103.344 9.25781C103.5 9.21094 103.633 9.1875 103.742 9.1875C104.242 9.1875 104.406 9.61719 104.234 10.4766C104.172 10.7266 104.078 11.0938 103.953 11.5781C104.25 11.2031 104.562 10.8516 104.891 10.5234C105.234 10.1797 105.578 9.875 105.922 9.60938C106.266 9.34375 106.609 9.13281 106.953 8.97656C107.312 8.82031 107.664 8.74219 108.008 8.74219C108.273 8.74219 108.492 8.82031 108.664 8.97656C108.852 9.13281 108.992 9.34375 109.086 9.60938C109.195 9.85938 109.258 10.1641 109.273 10.5234C109.289 10.8672 109.273 11.2266 109.227 11.6016C109.477 11.2734 109.75 10.9453 110.047 10.6172C110.359 10.2734 110.68 9.96875 111.008 9.70312C111.352 9.4375 111.703 9.21875 112.062 9.04688C112.422 8.875 112.781 8.78906 113.141 8.78906C113.562 8.78906 113.883 8.91406 114.102 9.16406C114.336 9.41406 114.492 9.73438 114.57 10.125C114.664 10.5156 114.688 10.9375 114.641 11.3906C114.609 11.8438 114.547 12.2812 114.453 12.7031L113.656 15.8672C113.484 16.6484 113.648 17.0391 114.148 17.0391C114.539 17.0391 114.969 16.8516 115.438 16.4766C115.906 16.1016 116.359 15.6562 116.797 15.1406C117.25 14.625 117.672 14.0938 118.062 13.5469C118.453 13 118.781 12.5625 119.047 12.2344C119.141 12.125 119.234 12.0625 119.328 12.0469C119.438 12.0312 119.523 12.0547 119.586 12.1172C119.664 12.1641 119.703 12.25 119.703 12.375C119.719 12.5 119.68 12.6562 119.586 12.8438C119.273 13.3906 118.891 14 118.438 14.6719C117.984 15.3281 117.484 15.9453 116.938 16.5234C116.406 17.1016 115.836 17.5859 115.227 17.9766C114.617 18.3672 113.984 18.5625 113.328 18.5625C113.109 18.5625 112.891 18.5391 112.672 18.4922C112.469 18.4453 112.273 18.3594 112.086 18.2344C111.914 18.1094 111.773 17.9453 111.664 17.7422C111.555 17.5234 111.5 17.25 111.5 16.9219ZM128.422 13.125C127.953 13.8125 127.422 14.4844 126.828 15.1406C126.234 15.7812 125.602 16.3594 124.93 16.875C124.273 17.375 123.594 17.7812 122.891 18.0938C122.203 18.4062 121.531 18.5625 120.875 18.5625C120.531 18.5625 120.156 18.4766 119.75 18.3047C119.359 18.1484 119 17.8984 118.672 17.5547C118.344 17.2109 118.078 16.7656 117.875 16.2188C117.688 15.6719 117.633 15.0078 117.711 14.2266C117.773 13.5859 117.969 12.9141 118.297 12.2109C118.641 11.4922 119.055 10.8359 119.539 10.2422C120.039 9.64844 120.594 9.15625 121.203 8.76562C121.828 8.375 122.453 8.17969 123.078 8.17969C123.672 8.17969 124.102 8.32812 124.367 8.625C124.633 8.92188 124.75 9.28906 124.719 9.72656C124.672 10.2109 124.531 10.6562 124.297 11.0625C124.078 11.4688 123.812 11.8359 123.5 12.1641C123.188 12.4922 122.852 12.7891 122.492 13.0547C122.148 13.3203 121.82 13.5625 121.508 13.7812C121.164 14.0156 120.836 14.2422 120.523 14.4609C120.211 14.6641 119.938 14.8516 119.703 15.0234C119.719 15.4141 119.789 15.7422 119.914 16.0078C120.039 16.2734 120.195 16.4922 120.383 16.6641C120.57 16.8203 120.781 16.9375 121.016 17.0156C121.266 17.0781 121.516 17.1094 121.766 17.1094C122.297 17.1094 122.852 16.9453 123.43 16.6172C124.008 16.2734 124.57 15.8672 125.117 15.3984C125.68 14.9141 126.195 14.4141 126.664 13.8984C127.148 13.3828 127.547 12.9375 127.859 12.5625C127.969 12.4375 128.078 12.3672 128.188 12.3516C128.312 12.3203 128.406 12.3359 128.469 12.3984C128.547 12.4453 128.586 12.5391 128.586 12.6797C128.586 12.8047 128.531 12.9531 128.422 13.125ZM122.422 9.51562C122.234 9.51562 122.008 9.60938 121.742 9.79688C121.492 9.98438 121.242 10.2578 120.992 10.6172C120.742 10.9609 120.508 11.3906 120.289 11.9062C120.07 12.4062 119.906 12.9844 119.797 13.6406C119.984 13.5 120.188 13.3594 120.406 13.2188C120.625 13.0625 120.844 12.8984 121.062 12.7266C121.734 12.2109 122.203 11.7578 122.469 11.3672C122.734 10.9766 122.883 10.6406 122.914 10.3594C122.945 10.0625 122.914 9.85156 122.82 9.72656C122.727 9.58594 122.594 9.51562 122.422 9.51562Z" fill="black"/>
</svg>
